<svg xmlns="http://www.w3.org/2000/svg" width="512" height="512" viewBox="0 0 384 384"><path xmlns="http://www.w3.org/2000/svg" d="M332.8 211.468H51.2c-7.066 0-12.8-5.735-12.8-12.8s5.734-12.8 12.8-12.8h281.6c7.066 0 12.8 5.734 12.8 12.8s-5.734 12.8-12.8 12.8zm0-98.135H51.2c-7.066 0-12.8-5.734-12.8-12.8s5.734-12.8 12.8-12.8h281.6c7.066 0 12.8 5.735 12.8 12.8s-5.734 12.8-12.8 12.8zm0 196.266H51.2c-7.066 0-12.8-5.735-12.8-12.8s5.734-12.8 12.8-12.8h281.6c7.066 0 12.8 5.734 12.8 12.8s-5.734 12.8-12.8 12.8zm0 0" fill="#fffdfd" data-original="#000000"/></svg>